<?xml version="1.0" standalone="no"?>
<!DOCTYPE svg PUBLIC "-//W3C//DTD SVG 20010904//EN"
 "http://www.w3.org/TR/2001/REC-SVG-20010904/DTD/svg10.dtd">
<svg version="1.0" xmlns="http://www.w3.org/2000/svg"
 width="700.000000pt" height="700.000000pt" viewBox="0 0 700.000000 700.000000"
 preserveAspectRatio="xMidYMid meet">
<metadata>
Created by potrace 1.15, written by Peter Selinger 2001-2017
</metadata>
<g transform="translate(0.000000,700.000000) scale(0.100000,-0.100000)"
fill="#000000" stroke="none">
<path d="M3225 6493 c-543 -47 -1099 -263 -1540 -598 -630 -478 -1035 -1163
-1160 -1965 -23 -143 -32 -569 -15 -726 125 -1225 955 -2228 2140 -2587 264
-80 532 -117 850 -117 532 0 979 112 1445 363 237 128 476 308 680 512 483
483 782 1101 860 1780 19 168 20 521 0 685 -56 481 -217 924 -478 1317 -495
745 -1276 1224 -2163 1328 -117 14 -498 19 -619 8z m620 -159 c125 -15 296
-47 354 -66 l34 -10 -65 -35 c-55 -29 -131 -83 -300 -214 l-33 -26 -120 10
c-81 6 -173 5 -282 -2 -377 -26 -703 -113 -1041 -277 l-153 -74 -216 73 -216
74 54 43 c291 232 762 423 1224 495 230 36 511 40 760 9z m-91 -544 l99 -8
354 -354 c194 -194 353 -357 353 -363 0 -5 -114 -320 -253 -699 l-252 -689
-590 -113 c-325 -63 -600 -116 -611 -119 -18 -4 -110 87 -525 516 -277 287
-505 529 -507 539 -5 28 42 205 83 315 66 177 204 434 290 540 21 26 72 63
143 103 433 248 964 373 1416 332z m1762 -275 c77 -77 171 -178 208 -225 174
-219 360 -544 454 -799 24 -62 41 -115 39 -117 -1 -2 -25 34 -52 78 -115 192
-366 485 -534 623 -33 28 -61 56 -61 64 0 7 -15 60 -34 116 -53 158 -131 303
-241 450 l-30 40 55 -45 c30 -24 118 -107 196 -185z m-391 -545 c165 -11 309
-20 321 -20 12 0 57 -33 108 -80 277 -253 484 -548 616 -880 l40 -101 -20
-135 c-38 -256 -87 -467 -155 -664 -37 -107 -140 -327 -172 -367 -17 -20 -44
-24 -515 -67 -274 -25 -508 -46 -521 -46 -22 0 -58 59 -306 493 l-282 494 251
684 c137 376 252 690 255 697 6 16 26 15 380 -8z m-4266 -909 c-102 -289 -161
-672 -146 -951 l6 -105 -24 45 c-31 61 -48 224 -48 465 1 351 64 694 185 1002
l43 108 7 -240 7 -240 -30 -84z m1320 -237 c400 -412 500 -521 496 -538 -2
-11 -25 -259 -52 -550 -26 -290 -52 -534 -58 -542 -5 -7 -224 -85 -485 -172
l-476 -159 -49 39 c-162 129 -336 313 -481 511 -66 90 -74 106 -94 190 -46
194 -63 350 -64 577 -1 210 7 304 40 475 20 102 72 290 93 335 33 71 280 218
521 309 58 22 106 40 107 41 1 0 227 -232 502 -516z m3689 -1576 c12 -139 22
-266 22 -283 -1 -55 -198 -312 -375 -490 -311 -312 -516 -408 -1057 -499 -301
-51 -305 -51 -312 -29 -13 46 -146 607 -146 619 0 7 179 199 397 426 l398 413
350 32 c192 18 413 39 490 46 77 8 156 15 176 16 l35 1 22 -252z m-2648 -478
c294 -127 546 -237 559 -243 21 -11 31 -43 101 -330 l77 -319 -31 -19 c-48
-30 -239 -87 -366 -108 -144 -25 -265 -39 -445 -51 -136 -9 -143 -8 -265 21
-379 89 -756 265 -1056 492 l-81 61 -13 198 c-7 109 -10 202 -6 206 11 11 969
331 981 327 6 -1 251 -107 545 -235z"/>
</g>
</svg>
